# xmcd
#
# Track frame offsets:
#	150
#	9089
#	18769
#	28610
#	38325
#	49101
#	59585
#	67901
#	78139
#	86860
#	95630
#	105700
#	114211
#	124081
#	133986
#	145325
#	155609
#	165375
#	174635
#	185555
#
# Disc length: 2610 seconds
#
# Revision: 0
# Processed by: cddbd v1.5.2PL0 Copyright (c) Steve Scherf et al.
# Submitted via: EZCDAudioConverter 2.0.3.1
#
DISCID=fd0a3014
DTITLE=Country and Western Nuggets Cd 7
DYEAR=1900
DGENRE=
TTITLE0=Draper Rusty - He Li Lee Li Lee Li
TTITLE1=Carter Bill - Shot Four Times And Dyin'
TTITLE2=Walker Billy - It's Doggone Tough On Me
TTITLE3=Johnson Cliff - Go Way Hound Dog
TTITLE4=Johnnie and Jack - Leave Our Moon Alone
TTITLE5=Lord Bobby - No More No More No More
TTITLE6=Mason Dixon - Queen Of My Heartaches
TTITLE7=Harvey Larry - High Wind
TTITLE8=Murphy Jimmy - Baboon Boogie
TTITLE9=Crockett Howard - I Love This Girl
TTITLE10=Robbins Marty - Mean Mama Blues
TTITLE11=Vinson Don - Shakin' Hands With Heartaches
TTITLE12=Zack Eddie - I'm Gonna Roll And Rock
TTITLE13=Newman Jimmy - Big Mamou
TTITLE14=King Sid - When My Baby Left Me
TTITLE15=Leatherwood Bill - Picture
TTITLE16=Lord Bobby - Everybody's Rockin' But Me
TTITLE17=Belew Carl - Another Lonely Night
TTITLE18=Craddock Billy "Crash" - Heavenly Love
TTITLE19=Lewis Wally - Sally Green
EXTD=
EXTT0=
EXTT1=
EXTT2=
EXTT3=
EXTT4=
EXTT5=
EXTT6=
EXTT7=
EXTT8=
EXTT9=
EXTT10=
EXTT11=
EXTT12=
EXTT13=
EXTT14=
EXTT15=
EXTT16=
EXTT17=
EXTT18=
EXTT19=
PLAYORDER=
